<svg width="207" height="148" viewBox="0 0 207 148" fill="none" xmlns="http://www.w3.org/2000/svg">
<path d="M25.9797 0.377718C19.3872 1.64815 13.035 5.73415 8.88034 11.3309C0.777027 22.2498 -1.76384 35.4005 1.18906 51.0234C3.11188 61.0152 8.53698 71.007 14.5801 75.5737C17.2927 77.6682 21.4473 79.6941 24.7436 80.5525C28.1429 81.4795 38.1347 81.4795 41.3966 80.5868C58.1526 75.9171 64.8138 56.7232 57.5346 34.0614C56.4015 30.5591 56.4015 30.5591 55.3027 30.5591H54.1696L54.9594 33.0657C56.1955 36.98 56.6075 40.6883 56.4015 46.3194C56.2298 51.6071 55.7491 54.354 54.2726 58.8521C51.6288 66.921 45.723 74.475 39.8515 77.2562C34.8041 79.6254 28.4176 79.9687 23.6792 78.1146C16.6403 75.299 10.3911 68.9125 6.16779 60.2255C4.38231 56.4485 3.76427 54.0793 3.24922 48.4139C2.49383 40.3793 3.38657 32.3103 5.72142 25.237C8.84601 15.932 15.7476 8.72139 23.5418 6.69556C27.8682 5.56247 34.2547 6.4552 40.7099 9.06475L43.6285 10.2322L43.7315 16.2753L43.8001 22.3185H60.7965H77.7929V39.4865V56.6546H72.1274H66.462V90.819V124.983H60.7965H55.131V136.349V147.748L57.2942 147.542C60.9338 147.199 66.2559 145.619 70.5479 143.662C76.1447 141.087 81.6385 136.486 86.6516 130.134C93.8278 121.103 99.7336 107.85 104.609 89.9605C112.919 59.5044 117.211 46.8344 123.803 33.4777C127.752 25.4774 131.598 19.8806 137.778 13.1164C140.353 10.3008 141.658 9.33943 141.658 10.2665C141.658 10.4039 140.662 12.6014 139.46 15.1422C133.211 28.1899 129.812 44.2249 127.34 72.6895L126.756 79.6597H125.108H123.46V96.6561V113.652H117.794H112.129V130.649V147.645H123.288H134.447V141.98V136.314H140.113H145.778V130.649V124.983H151.444H157.109L157.178 119.215L157.281 113.481L163.049 113.378L168.783 113.309V94.4929C168.783 76.7755 168.818 75.5394 169.47 72.9642C170.981 66.9554 173.659 54.9721 175.479 45.8387C181.556 15.5886 186.707 3.70832 193.78 3.63965C195.325 3.60531 195.394 3.63965 195.394 4.60106C195.394 5.15043 195.154 5.69981 194.879 5.87149C194.604 6.00884 193.746 6.42087 192.99 6.76423C191.102 7.65697 189.488 10.0948 189.213 12.5327C188.904 14.8332 189.419 17.1337 190.793 19.5373C192.132 21.8378 194.33 23.0052 197.454 23.0052C203.12 23.0052 206.313 20.224 206.897 14.8675C207.48 8.99607 205.592 4.87574 201.3 2.74691C196.012 0.137366 190.175 0.824087 186.364 4.46371C180.835 9.82014 176.818 21.0824 172.389 43.7785C167.513 68.8782 163.084 86.6643 158.895 97.8578L157.281 102.15L151.547 102.253L145.778 102.322V90.9906V79.6597H142.482H139.186L139.392 72.3461C139.529 68.3632 139.769 58.8864 139.976 51.3325C140.697 22.5245 142.207 13.1851 147.117 6.93591L148.525 5.18477L147.461 4.46371C146.911 4.05168 146.19 3.81133 145.916 3.91433C143.993 4.63539 137.538 9.61412 134.241 12.8761C130.155 16.9277 127.752 19.9493 124.627 25.0997C116.867 37.8384 111.305 52.8432 104.575 79.1447C103.991 81.4109 103.03 85.0162 102.412 87.1107L101.313 90.9906H95.2356H89.1238V79.488V67.9855H94.7892H100.455V45.152V22.3185H106.12H111.786V11.1592V2.13869e-05H100.455H89.1238V5.66547V11.3309H77.6212H66.1186V5.66547V2.13869e-05L46.8217 0.0343575C36.1775 0.0686935 26.8038 0.206038 25.9797 0.377718Z" fill="#F9F5EE"/>
</svg>
